<?xml version="1.0" standalone="no"?>
<!DOCTYPE svg PUBLIC "-//W3C//DTD SVG 20010904//EN"
 "http://www.w3.org/TR/2001/REC-SVG-20010904/DTD/svg10.dtd">
<svg version="1.0" xmlns="http://www.w3.org/2000/svg"
 width="136.000000pt" height="136.000000pt" viewBox="0 0 136.000000 136.000000"
 preserveAspectRatio="xMidYMid meet">
<metadata>
Created by potrace 1.14, written by Peter Selinger 2001-2017
</metadata>
<g transform="translate(0.000000,136.000000) scale(0.100000,-0.100000)"
fill="#000000" stroke="none">
<path d="M345 1175 c-63 -62 -115 -119 -115 -126 0 -22 72 -293 82 -305 4 -6
47 -21 95 -33 49 -13 117 -32 152 -42 l65 -19 111 107 c62 60 115 114 118 121
4 8 0 37 -8 66 -9 30 -18 62 -20 72 -2 11 -14 57 -27 103 l-23 84 -85 23 c-47
13 -96 26 -110 28 -14 3 -47 12 -73 20 l-48 14 -114 -113z"/>
<path d="M760 750 l-118 -118 42 -151 c23 -83 46 -155 51 -160 9 -8 268 -81
302 -85 9 -1 196 174 233 219 8 10 -1 55 -31 167 -23 84 -46 156 -51 159 -6 4
-49 17 -97 29 -47 12 -114 30 -149 40 l-64 19 -118 -119z"/>
<path d="M194 604 c-63 -62 -114 -120 -114 -129 0 -30 72 -290 84 -302 6 -6
79 -29 161 -51 l150 -41 111 107 c61 59 114 113 117 120 4 7 0 36 -7 65 -30
114 -69 252 -72 256 -2 2 -73 23 -159 46 l-156 42 -115 -113z"/>
</g>
</svg>
